<?xml version="1.0" encoding="utf-8"?>
<!-- Generator: Adobe Illustrator 21.1.0, SVG Export Plug-In . SVG Version: 6.00 Build 0)  -->
<svg version="1.1" id="Layer_1" xmlns="http://www.w3.org/2000/svg" xmlns:xlink="http://www.w3.org/1999/xlink" x="0px" y="0px"
	 viewBox="0 0 344 344.1" style="enable-background:new 0 0 344 344.1;" xml:space="preserve">
<style type="text/css">
	.st0{fill:#FFFFFF;}
</style>
<g>
	<path d="M33.9,229.3c-14.4-1.6-24.7-8.5-30.7-21.4c-2.3-5-3.1-10.3-3.1-15.8c0-13.2,0.3-26.3-0.1-39.5
		c-0.6-19.8,13.9-36.1,33.6-37.7c-0.2-0.5-0.4-0.9-0.6-1.2c-11.6-15-11.2-33.6,1.8-47.3c10.3-11,20.9-21.7,32.1-31.9
		c13.1-11.9,32-12.2,46.2-1.6c0.5,0.3,0.9,0.7,1.5,1c0.6-2.9,1.1-5.7,1.9-8.4c4.3-14.3,17.4-24.8,32.3-25.1
		c15.4-0.4,30.8-0.4,46.2,0c16.7,0.4,30.7,13.2,33.5,29.7c0.2,1.2,0.4,2.5,0.6,4c1-0.7,2-1.4,2.9-2.1c12.7-9.1,32.9-9.6,46.4,3.6
		C289,45.9,299.6,56.2,309.8,67c12.1,12.8,12.5,32.2,1.6,46c-0.4,0.5-0.8,1-1.3,1.8c5.9,0.6,11.3,2,16.2,5
		c11.1,6.9,17.2,16.9,17.5,29.9c0.3,15.3,0.6,30.7-0.2,46c-0.9,17.9-14.4,31.2-32.2,33.2c-0.3,0-0.6,0.1-0.9,0.1
		c1.9,3.3,4.2,6.4,5.6,9.9c5.7,13.9,3.8,27-6.5,38c-10.4,11.1-21.3,21.9-32.3,32.4c-13.2,12.5-32.3,13-46.6,1.8
		c-0.4-0.3-0.9-0.7-1.6-1.2c-0.7,7.4-3,14-7.5,19.7c-6.9,8.9-16.1,13.7-27.3,14c-14.9,0.3-29.8,0.3-44.7,0
		c-18.4-0.4-33.2-14.4-34.8-33.7c-1.4,1-2.7,2-4.1,2.9c-12.9,8.9-31.6,8.1-43-2.7c-11.8-11.1-23.3-22.6-34.5-34.5
		c-11.1-11.8-11.2-31.4-1.1-44.5C32.7,230.8,33.2,230.2,33.9,229.3z M281.3,217.5c-0.4-0.6-0.6-0.9-0.8-1.2
		c-5-6.2-8.1-13.2-8.2-21.3c-0.1-15.2-0.1-30.3,0-45.5c0-7.9,2.9-14.9,7.8-21.1c0.4-0.5,0.7-1.1,1.2-1.8c-10.7-0.7-19-5.6-26.1-13
		c-8.9-9.2-18-18.1-27-27.1c-5-5-8.4-10.9-10-17.8c-0.4-1.9-0.7-3.8-1-6.2c-8.9,8.1-19.4,10.1-30.6,9.3c-0.1,0.7-0.2,1-0.2,1.3
		c0,14.1,0,28.2,0,42.2c0,0.7,0.9,1.6,1.6,1.9c4.1,1.9,8.5,3.3,12.5,5.5c22.2,12.4,33.5,39.3,26.7,63.8c-1.5,5.3-4,10.3-5.8,14.9
		c10.5,10.4,21,20.8,31.7,31.4C260.5,224.1,269.3,218.2,281.3,217.5z M62.9,126.7c0,0.3,0,0.5,0.1,0.6c0.2,0.4,0.5,0.7,0.7,1
		c5,6.2,7.8,13.2,7.9,21.1c0.1,15.1,0.1,30.2,0,45.2c-0.1,8.1-3.1,15.2-8.1,21.5c-0.3,0.3-0.4,0.8-0.7,1.3
		c11.9,0.7,20.7,6.8,28,15.3c10.8-10.7,21.3-21.1,32-31.7c0.1,0.5,0.1,0.3,0,0.2c-0.4-0.7-0.7-1.3-1.1-2c-6.1-11-8.6-22.9-6.6-35.2
		c3.9-23.6,17.7-39,40.3-46.6c1.7-0.6,2.1-1.3,2.1-3c-0.1-13.4,0-26.8,0-40.2c0-0.7-0.1-1.5-0.2-2.6c-11.4,0.9-21.9-1.2-30.8-9.2
		c-1.3,10.6-4.2,17.2-10.6,23.7c-9.9,10-19.9,19.9-29.9,29.9c-1.3,1.3-2.7,2.4-4.2,3.6C76.3,123.9,69.8,125.9,62.9,126.7z
		 M201,221.3c-19.2,10.9-39,10.9-58.2,0c-10.6,10.7-21.1,21.2-31.7,31.9c9,7.5,14.7,16.5,15.4,28.3c8.3-6.5,14.2-9,23.2-9.1
		c14.8-0.2,29.7-0.1,44.5,0c8.2,0,15.4,3,21.8,8.1c0.4,0.3,0.8,0.5,1.3,0.9c0.4-5.8,1.7-11.2,4.8-15.8c3-4.5,6.7-8.5,10.2-12.9
		C222.1,242.4,211.7,232,201,221.3z"/>
	<path class="st0" d="M281.3,217.5c-12,0.7-20.9,6.6-28.2,15.4c-10.7-10.6-21.2-21-31.7-31.4c1.8-4.6,4.3-9.6,5.8-14.9
		c6.8-24.5-4.5-51.4-26.7-63.8c-4-2.2-8.4-3.6-12.5-5.5c-0.7-0.3-1.6-1.3-1.6-1.9c-0.1-14.1-0.1-28.2,0-42.2c0-0.3,0.1-0.6,0.2-1.3
		c11.2,0.8,21.7-1.1,30.6-9.3c0.4,2.3,0.6,4.3,1,6.2c1.5,6.9,4.9,12.8,10,17.8c9,9,18.1,17.9,27,27.1c7.2,7.4,15.4,12.4,26.1,13
		c-0.5,0.8-0.8,1.3-1.2,1.8c-4.9,6.2-7.8,13.2-7.8,21.1c-0.1,15.2-0.1,30.3,0,45.5c0.1,8,3.2,15.1,8.2,21.3
		C280.7,216.5,280.9,216.8,281.3,217.5z"/>
	<path class="st0" d="M62.9,126.7c7-0.7,13.5-2.8,19.1-7.1c1.5-1.1,2.9-2.3,4.2-3.6c10-9.9,20-19.9,29.9-29.9
		c6.4-6.4,9.3-13.1,10.6-23.7c8.8,8.1,19.4,10.1,30.8,9.2c0.1,1.1,0.2,1.8,0.2,2.6c0,13.4,0,26.8,0,40.2c0,1.7-0.4,2.4-2.1,3
		c-22.6,7.6-36.4,23-40.3,46.6c-2,12.3,0.5,24.2,6.6,35.2c0.4,0.7,0.7,1.3,1.1,2c0.1,0.1,0.1,0.3,0-0.2
		c-10.7,10.7-21.2,21.1-32,31.7c-7.4-8.6-16.2-14.6-28-15.3c0.3-0.5,0.4-1,0.7-1.3c5-6.3,8.1-13.4,8.1-21.5
		c0.1-15.1,0.1-30.2,0-45.2c-0.1-7.9-2.9-14.9-7.9-21.1c-0.3-0.3-0.5-0.7-0.7-1C62.9,127.2,62.9,127,62.9,126.7z"/>
	<path class="st0" d="M201,221.3c10.7,10.7,21,21.1,31.3,31.4c-3.5,4.3-7.2,8.4-10.2,12.9c-3.1,4.6-4.3,10-4.8,15.8
		c-0.6-0.4-1-0.6-1.3-0.9c-6.4-5.1-13.6-8.1-21.8-8.1c-14.8-0.1-29.7-0.2-44.5,0c-9,0.1-14.8,2.6-23.2,9.1
		c-0.7-11.9-6.4-20.9-15.4-28.3c10.7-10.7,21.1-21.3,31.7-31.9C162,232.2,181.8,232.1,201,221.3z"/>
</g>
</svg>
