<?xml version="1.0" encoding="utf-8"?>
<!-- Generator: Adobe Illustrator 21.1.0, SVG Export Plug-In . SVG Version: 6.00 Build 0)  -->
<svg version="1.1" id="Layer_1" xmlns="http://www.w3.org/2000/svg" xmlns:xlink="http://www.w3.org/1999/xlink" x="0px" y="0px"
	 viewBox="0 0 298.6 274.3" style="enable-background:new 0 0 298.6 274.3;" xml:space="preserve">
<style type="text/css">
	.st0{fill:#FFFFFF;}
</style>
<g>
	<path d="M58.3,129.6c-9.3,9.7-15.4,20.7-18.4,33.5c-4.2,18.2-1.3,35.7,4.2,53.1c4.4,13.9,12.1,26,20.4,37.9c2.1,3.1,4.3,6.1,6,9.5
		c-3.3-3.8-6.8-7.5-10-11.5c-9-11.3-17.4-23-23.5-36.2c-7.1-15.3-9.9-31.6-10-48.3c0-29.1,9.1-55,27.6-77.4
		c14.2-17.2,32.6-27.9,54.3-33c0.7-0.2,1.4-0.4,2.7-0.7c-10.1-2.6-19.7-3.1-29.5-1.5c-19.4,3.2-34.8,13.6-48.6,26.9
		c-13,12.6-21.6,28-28.7,44.4c-1.5,3.5-3,7-5,10.4c0.1-0.6,0.1-1.3,0.3-1.8c6.2-21.4,15-41.5,29.1-58.9
		c9.7-11.9,21.7-21.1,35.1-28.5c21.9-12.1,45.4-17,70.1-14.4c28.4,2.9,51.8,15.7,69.5,38.4c1.1,1.4,2.3,2.8,3.8,4.5
		c-3.3-25.6-16.1-44.3-37.7-57c-13-7.6-27-12.8-42-14.3c-9-0.9-18.1-0.2-27.2,0c-4.6,0.1-9.3,0.9-13.9,1.3c0-0.2-0.1-0.4-0.1-0.6
		c5.7-1.2,11.4-2.5,17.2-3.5c16.9-2.7,33.7-2.4,50.4,1.6c13.5,3.2,25.9,9.1,37.3,16.9c24.9,16.9,41.8,39.6,49.6,68.7
		c5.2,19.2,4.1,38.4-2.3,57.3c-0.3,0.8-0.5,1.7-1,3.1c10.6-10.4,17.8-22,21.2-35.9c3.7-15.3,2.1-30.4-1.6-45.5
		c-4.3-17.7-13.5-32.8-25-46.7c-2.5-3-4.9-6.1-7.1-9.3c4,4,8.2,7.8,12.1,11.9c11.7,12.2,21,26.1,27.1,41.9c6.9,17.7,8.9,36.2,7.1,55
		c-2.1,21.6-9.3,41.4-22.1,58.9c-15.4,21.2-36.3,34.4-62,39.7c-1,0.2-2,0.3-3,0.5c-0.9,0.1-1.9,0.3-2.8,0.5c0,0.2-0.1,0.5-0.1,0.7
		c4.6,1,9.2,2.4,13.9,3.1c22.8,3.5,42.4-3.7,60.1-17.8c18.3-14.6,30.4-33.3,38.4-55c1.1-3,2.4-5.9,4.1-8.7c-0.4,1.5-0.7,3-1.1,4.5
		c-5,18.5-12.3,36.1-23.4,51.8c-8.5,12-19.5,21.3-31.8,29.3c-22.2,14.4-46.8,20.7-72.9,19.2c-28.8-1.7-52.8-13.8-71.5-36.1
		c-0.6-0.7-1.2-1.5-2-2.1c1.9,7.6,4.7,14.7,8.8,21.3c8.3,13.7,20.3,23.3,34.9,29.4c13.9,5.8,28.6,9,43.7,9c11.6,0,23-2.1,34.3-4.6
		c2.2-0.5,4.4-0.9,6.7-0.9c-4.4,1.4-8.8,2.7-13.2,4.2c-16,5.1-32.5,7.5-49.3,6.3c-15-1.1-29.3-5.2-42.8-11.9
		c-29.5-14.7-50.6-37.1-61.2-68.5C51,173.3,51.2,152.6,58,132c0.2-0.5,0.4-1.1,0.5-1.7C58.5,130.2,58.4,130.1,58.3,129.6z
		 M174.7,139.9c-0.1-14.5-11.5-25.9-25.9-25.8c-14.1,0-25.8,11.6-25.7,25.4c0.1,14.7,11.6,26.3,26.1,26.1
		C163.2,165.5,174.8,153.9,174.7,139.9z"/>
	<path class="st0" d="M174.7,139.9c0.1,13.9-11.4,25.6-25.5,25.7c-14.5,0.1-26.1-11.4-26.1-26.1c0-13.9,11.6-25.4,25.7-25.4
		C163.2,114.1,174.6,125.4,174.7,139.9z"/>
</g>
</svg>
