<?xml version="1.0" encoding="utf-8"?>
<!-- Generator: Adobe Illustrator 21.1.0, SVG Export Plug-In . SVG Version: 6.00 Build 0)  -->
<svg version="1.1" id="Layer_1" xmlns="http://www.w3.org/2000/svg" xmlns:xlink="http://www.w3.org/1999/xlink" x="0px" y="0px"
	 viewBox="0 0 320.2 320.2" style="enable-background:new 0 0 320.2 320.2;" xml:space="preserve">
<g>
	<path d="M92.3,160.2c-0.1-37.3,30.2-67.8,67.6-67.9s67.9,30.3,67.9,67.8c0,37.4-30.3,67.7-67.7,67.7
		C122.8,227.9,92.4,197.5,92.3,160.2z"/>
	<path d="M284.5,124.3c-2,1.2-2.7,0.4-3.3-1.4c-8.2-25.9-23-47.2-44.5-63.6c-17.9-13.7-38.1-22.1-60.5-24.7
		c-35.7-4.3-67.8,4.6-95.8,27.2c-26.2,21.1-41.5,48.7-45.7,82.1c-4.6,36.9,5.1,69.9,29.2,98.2c21.2,24.9,48.3,39.8,81,43.4
		c41.2,4.6,76.6-8.2,105.9-37.2c14.3-14.2,24.2-31.3,30.3-50.5c0.5-1.5,0.8-3,2.9-2c-16.1,57.6-73.6,100.2-139.7,92.6
		c-63.5-7.3-113.8-61.5-113.8-128.2c0-65.6,47.6-118.8,110.3-128C208.8,22.1,267.5,65.1,284.5,124.3z"/>
	<path d="M257.5,160c-0.2-16.6,13.4-30.3,30.2-30.5c16.9-0.2,30.7,13.4,30.9,30.4c0.2,16.7-13.5,30.6-30.3,30.8
		C271.3,190.8,257.7,177.3,257.5,160z M314.9,160c-0.2-15.1-12.3-27-27.1-26.8c-14.7,0.2-26.7,12.4-26.5,26.9
		c0.2,14.9,12.2,26.9,26.9,26.9C302.9,186.9,315.1,174.6,314.9,160z"/>
</g>
</svg>
