<?xml version="1.0" encoding="utf-8"?>
<!-- Generator: Adobe Illustrator 21.1.0, SVG Export Plug-In . SVG Version: 6.00 Build 0)  -->
<svg version="1.1" id="Layer_1" xmlns="http://www.w3.org/2000/svg" xmlns:xlink="http://www.w3.org/1999/xlink" x="0px" y="0px"
	 viewBox="0 0 205 205" style="enable-background:new 0 0 205 205;" xml:space="preserve">
<g>
	<path d="M203.6,107.3c-67.5,3.8-134.9,4.1-202.4,0c-0.1-0.2-0.1-0.4-0.2-0.6c0.9-0.5,1.7-1.2,2.7-1.5c4.4-1.2,8.8-2.6,13.3-3.2
		c9.4-1.3,18.9-2.3,28.4-3.2c8-0.7,16.1-0.9,24.2-1.4c1-0.1,1.4-0.4,1.8-1.3c5.3-14,19.2-23,34-21.4c13.3,1.4,22.7,8.5,28,20.9
		c0.6,1.4,1.2,1.9,2.8,2c12.9,0.8,25.7,1.5,38.5,2.6c8.2,0.7,16.4,1.8,24.3,4.3c1.7,0.6,3.3,1.4,5,2.1
		C203.8,106.9,203.8,107.1,203.6,107.3z M102.5,93.6c3.8,0,7-3,6.9-6.8c0-3.8-3-6.9-6.8-7c-3.7-0.1-6.9,3-6.9,6.7
		C95.7,90.5,98.6,93.6,102.5,93.6z"/>
	<path d="M204.5,108.8c-0.9,0.6-1.8,1.5-2.8,1.9c-3.6,1.1-7.4,2.5-11.1,3c-9.8,1.4-19.7,2.5-29.5,3.5c-4.3,0.5-8.7,0.6-13.1,0.9
		c-0.4,0-0.9,0.1-1.1,0.4c-6.2,5.1-13.6,7.7-21.3,9.3c-18.4,4-36.7,3.6-54.6-2.5c-4.4-1.5-8.6-3.5-12.2-6.5c-0.5-0.4-1.3-0.6-2-0.6
		c-13.5-0.9-26.9-1.8-40.2-4c-3.8-0.6-7.4-1.6-11.1-2.6c-1.8-0.5-3.6-1.1-4.8-3.1c68,4.1,135.9,3.9,203.7,0
		C204.3,108.5,204.4,108.6,204.5,108.8z"/>
</g>
</svg>
