<?xml version="1.0" encoding="utf-8"?>
<!-- Generator: Adobe Illustrator 21.1.0, SVG Export Plug-In . SVG Version: 6.00 Build 0)  -->
<svg version="1.1" id="Layer_1" xmlns="http://www.w3.org/2000/svg" xmlns:xlink="http://www.w3.org/1999/xlink" x="0px" y="0px"
	 viewBox="0 0 309.1 29" style="enable-background:new 0 0 309.1 29;" xml:space="preserve">
<style type="text/css">
	.st0{fill:#96C7FF;}
	.st1{fill:none;}
	.st2{enable-background:new    ;}
</style>
<g>
	<g>
		<g>
			<path d="M18.2,8c0,1.7-1.3,3-3,3s-3-1.3-3-3s1.3-3,3-3S18.2,6.3,18.2,8z M27.2,7.6c0,0-4.3,8.4-12,8.4c-7.2,0-12-8.4-12-8.4
				S7.6,0,15.2,0C22.9,0,27.2,7.6,27.2,7.6z M20.2,8c0-2.8-2.2-5-5-5s-5,2.2-5,5s2.2,5,5,5S20.2,10.8,20.2,8z"/>
			<rect x="14.4" y="18" class="st0" width="1.5" height="11"/>
			<rect x="20.9" y="16.4" transform="matrix(0.9548 -0.2972 0.2972 0.9548 -5.5305 7.4186)" class="st0" width="1.5" height="11"/>
			<rect x="26" y="13" transform="matrix(0.8457 -0.5337 0.5337 0.8457 -5.7548 17.1197)" class="st0" width="1.5" height="11"/>
			
				<rect x="3.2" y="21.2" transform="matrix(0.2972 -0.9548 0.9548 0.2972 -14.8088 23.7624)" class="st0" width="11" height="1.5"/>
			
				<rect x="-1.9" y="17.7" transform="matrix(0.5337 -0.8457 0.8457 0.5337 -13.9335 11.6196)" class="st0" width="11" height="1.5"/>
		</g>
	</g>
	<rect x="40" y="2.2" class="st1" width="245" height="14.5"/>
	<g class="st2">
		<path d="M42.6,16.4V2.1h6.6V3h-5.7v5.3h5.1V9h-5.1v6.5h5.9v0.8H42.6z"/>
		<path d="M51.7,2.1h1.2l3.8,6.3l4-6.3h1.1l-4.6,7l4.6,7.3h-1.2l-4.1-6.6l-4.3,6.6h-1.1L56.1,9L51.7,2.1z"/>
		<path d="M67.6,3h-4.8V2.1h10.6V3h-4.8v13.5h-1V3z"/>
		<path d="M76.5,16.4V2.2C77.8,2.1,78.8,2,79.7,2c1.4,0,2.5,0.3,3.4,1c0.9,0.7,1.3,1.7,1.3,3c0,0.9-0.3,1.7-0.8,2.4
			c-0.5,0.7-1.1,1.3-1.7,1.8c0.5,0.7,1.1,1.5,1.8,2.4c0.7,0.9,1.2,1.5,1.4,1.8c0.8,0.9,1.7,1.4,2.8,1.5l0,0.6c-0.8,0-1.5-0.1-2-0.4
			c-0.5-0.2-1-0.6-1.5-1.1c-0.5-0.5-1.6-2-3.4-4.5c-1.3,0-2.5,0-3.6-0.1v5.9H76.5z M80.5,9.9c0.6,0,1.2-0.4,1.9-1.2
			c0.7-0.8,1-1.7,1-2.7c0-1-0.3-1.8-1-2.3c-0.7-0.5-1.6-0.8-2.7-0.8c-0.6,0-1.3,0-2.1,0.1v6.8C78.5,9.8,79.5,9.9,80.5,9.9z"/>
		<path d="M90.4,11.5l-2.1,5h-1l6-14.4h0.6l6,14.4h-1.1l-2.1-5H90.4z M93.6,3.6c0,0,0,0.1-0.1,0.2c-0.2,0.6-0.4,1.1-0.5,1.5
			l-2.2,5.3h5.7l-2.2-5.3C93.8,4.3,93.6,3.7,93.6,3.6z"/>
		<path d="M104.1,3h-4.8V2.1h10.6V3H105v13.5h-1V3z"/>
		<path d="M112.9,16.4V2.1h6.6V3h-5.7v5.3h5.1V9h-5.1v6.5h5.9v0.8H112.9z"/>
		<path d="M123.6,16.4V2.2c1.3-0.1,2.3-0.1,3.2-0.1c1.4,0,2.5,0.3,3.4,1c0.9,0.7,1.3,1.7,1.3,3c0,0.9-0.3,1.7-0.8,2.4
			c-0.5,0.7-1.1,1.3-1.7,1.8c0.5,0.7,1.1,1.5,1.8,2.4c0.7,0.9,1.2,1.5,1.4,1.8c0.8,0.9,1.7,1.4,2.8,1.5l0,0.6c-0.8,0-1.5-0.1-2-0.4
			c-0.5-0.2-1-0.6-1.5-1.1c-0.5-0.5-1.6-2-3.4-4.5c-1.3,0-2.5,0-3.6-0.1v5.9H123.6z M127.6,9.9c0.6,0,1.2-0.4,1.9-1.2
			c0.7-0.8,1-1.7,1-2.7c0-1-0.3-1.8-1-2.3c-0.7-0.5-1.6-0.8-2.7-0.8c-0.6,0-1.3,0-2.1,0.1v6.8C125.7,9.8,126.7,9.9,127.6,9.9z"/>
		<path d="M136.8,16.4V2.2c1.3-0.1,2.3-0.1,3.2-0.1c1.4,0,2.5,0.3,3.4,1c0.9,0.7,1.3,1.7,1.3,3c0,0.9-0.3,1.7-0.8,2.4
			c-0.5,0.7-1.1,1.3-1.7,1.8c0.5,0.7,1.1,1.5,1.8,2.4c0.7,0.9,1.2,1.5,1.4,1.8c0.8,0.9,1.7,1.4,2.8,1.5l0,0.6c-0.8,0-1.5-0.1-2-0.4
			c-0.5-0.2-1-0.6-1.5-1.1c-0.5-0.5-1.6-2-3.4-4.5c-1.3,0-2.5,0-3.6-0.1v5.9H136.8z M140.7,9.9c0.6,0,1.2-0.4,1.9-1.2
			c0.7-0.8,1-1.7,1-2.7c0-1-0.3-1.8-1-2.3c-0.7-0.5-1.6-0.8-2.7-0.8c-0.6,0-1.3,0-2.1,0.1v6.8C138.8,9.8,139.8,9.9,140.7,9.9z"/>
		<path d="M150,16.4V2.1h6.6V3h-5.7v5.3h5.1V9h-5.1v6.5h5.9v0.8H150z"/>
		<path d="M166.8,3.4c-1-0.4-1.9-0.6-2.9-0.6c-1.9,0-2.9,0.7-2.9,2.2c0,0.6,0.2,1.2,0.7,1.8c0.4,0.5,1,1,1.6,1.4
			c0.6,0.4,1.3,0.8,1.9,1.3c0.6,0.4,1.2,1,1.6,1.6c0.4,0.6,0.7,1.3,0.7,2c0,1.2-0.4,2.1-1.2,2.8c-0.8,0.6-1.9,0.9-3.4,0.9
			s-2.7-0.4-3.7-1.1l0.5-0.7c1,0.6,2,0.9,3.2,0.9c1.1,0,2-0.2,2.6-0.7s0.9-1.1,0.9-2c0-0.6-0.2-1.2-0.7-1.7c-0.4-0.5-1-1-1.6-1.5
			c-0.6-0.4-1.3-0.9-1.9-1.3c-0.6-0.5-1.2-1-1.6-1.6c-0.4-0.6-0.7-1.3-0.7-2c0-0.9,0.4-1.7,1.1-2.2c0.7-0.6,1.6-0.8,2.8-0.8
			c1.2,0,2.3,0.2,3.3,0.7L166.8,3.4z"/>
		<path d="M174.2,3h-4.8V2.1H180V3h-4.8v13.5h-1V3z"/>
		<path d="M183.1,16.4V2.2c1.3-0.1,2.3-0.1,3.2-0.1c1.4,0,2.5,0.3,3.4,1s1.3,1.7,1.3,3c0,0.9-0.3,1.7-0.8,2.4
			c-0.5,0.7-1.1,1.3-1.7,1.8c0.5,0.7,1.1,1.5,1.8,2.4c0.7,0.9,1.2,1.5,1.4,1.8c0.8,0.9,1.7,1.4,2.8,1.5l0,0.6c-0.8,0-1.5-0.1-2-0.4
			c-0.5-0.2-1-0.6-1.5-1.1c-0.5-0.5-1.6-2-3.4-4.5c-1.3,0-2.5,0-3.6-0.1v5.9H183.1z M187,9.9c0.6,0,1.2-0.4,1.9-1.2
			c0.7-0.8,1-1.7,1-2.7c0-1-0.3-1.8-1-2.3c-0.7-0.5-1.6-0.8-2.7-0.8c-0.6,0-1.3,0-2.1,0.1v6.8C185.1,9.8,186.1,9.9,187,9.9z"/>
		<path d="M196.3,16.4V2.1h1v14.3H196.3z"/>
		<path d="M203.3,11.5l-2.1,5h-1l6-14.4h0.6l6,14.4h-1.1l-2.1-5H203.3z M206.4,3.6c0,0,0,0.1-0.1,0.2c-0.2,0.6-0.4,1.1-0.5,1.5
			l-2.2,5.3h5.7l-2.2-5.3C206.7,4.3,206.4,3.7,206.4,3.6z"/>
		<path d="M215.8,16.4V2.1h1v13.4h6.6v0.9H215.8z"/>
		<path class="st0" d="M228.4,13l4.1-10.6h0.6l3.6,10.6c0.3,0.8,0.5,1.4,0.6,1.8c0.1-0.4,0.3-1,0.6-1.8l3.7-10.9h1l-5,14.4H237
			l-3.7-10.6c-0.1-0.2-0.1-0.3-0.2-0.5C233,5.2,233,5.1,232.9,5c0-0.1-0.1-0.2-0.1-0.3l-0.1-0.2c0-0.1,0-0.1,0-0.1
			c-0.2,0.5-0.4,1-0.6,1.7l-4.2,10.6h-0.6l-5-14.4h1.1l3.7,10.8c0.2,0.5,0.3,0.9,0.4,1.3s0.2,0.6,0.2,0.6
			C227.8,14.5,228,13.9,228.4,13z"/>
		<path class="st0" d="M245.5,16.4V2.1h1v14.3H245.5z"/>
		<path class="st0" d="M254.3,3h-4.8V2.1h10.6V3h-4.8v13.5h-1V3z"/>
		<path class="st0" d="M264.1,4.4l0,1.7v10.3h-1V2h0.4l9.4,10.9c0.6,0.8,1.1,1.4,1.5,1.8c-0.1-0.6-0.1-1.4-0.1-2.2V2.1h1v14.4H275
			l-9.6-11.1c-0.7-0.8-1.1-1.3-1.3-1.5L264.1,4.4z"/>
		<path class="st0" d="M280.7,16.4V2.1h6.6V3h-5.7v5.3h5.1V9h-5.1v6.5h5.9v0.8H280.7z"/>
		<path class="st0" d="M297.6,3.4c-1-0.4-1.9-0.6-2.9-0.6c-1.9,0-2.9,0.7-2.9,2.2c0,0.6,0.2,1.2,0.7,1.8c0.4,0.5,1,1,1.6,1.4
			c0.6,0.4,1.3,0.8,1.9,1.3c0.6,0.4,1.2,1,1.6,1.6c0.4,0.6,0.7,1.3,0.7,2c0,1.2-0.4,2.1-1.2,2.8c-0.8,0.6-1.9,0.9-3.4,0.9
			c-1.4,0-2.7-0.4-3.7-1.1l0.5-0.7c1,0.6,2,0.9,3.2,0.9s2-0.2,2.6-0.7s0.9-1.1,0.9-2c0-0.6-0.2-1.2-0.7-1.7c-0.4-0.5-1-1-1.6-1.5
			c-0.6-0.4-1.3-0.9-1.9-1.3c-0.6-0.5-1.2-1-1.6-1.6c-0.4-0.6-0.7-1.3-0.7-2c0-0.9,0.3-1.7,1-2.2c0.7-0.6,1.6-0.8,2.8-0.8
			s2.3,0.2,3.3,0.7L297.6,3.4z"/>
		<path class="st0" d="M308.5,3.4c-1-0.4-1.9-0.6-2.9-0.6c-1.9,0-2.9,0.7-2.9,2.2c0,0.6,0.2,1.2,0.7,1.8c0.4,0.5,1,1,1.6,1.4
			c0.6,0.4,1.3,0.8,1.9,1.3c0.6,0.4,1.2,1,1.6,1.6c0.4,0.6,0.7,1.3,0.7,2c0,1.2-0.4,2.1-1.2,2.8c-0.8,0.6-1.9,0.9-3.4,0.9
			s-2.7-0.4-3.7-1.1l0.5-0.7c1,0.6,2,0.9,3.2,0.9c1.1,0,2-0.2,2.6-0.7s0.9-1.1,0.9-2c0-0.6-0.2-1.2-0.7-1.7c-0.4-0.5-1-1-1.6-1.5
			c-0.6-0.4-1.3-0.9-1.9-1.3c-0.6-0.5-1.2-1-1.6-1.6c-0.4-0.6-0.7-1.3-0.7-2c0-0.9,0.4-1.7,1.1-2.2c0.7-0.6,1.6-0.8,2.8-0.8
			c1.2,0,2.3,0.2,3.3,0.7L308.5,3.4z"/>
	</g>
</g>
</svg>
